<svg xmlns="http://www.w3.org/2000/svg" viewBox="0 0 1000 640" fill="none">
  <rect width="1000" height="640" fill="#f7f4ef"/>
  <rect x="30" y="30" width="940" height="580" fill="#fff" stroke="#1a2338" stroke-width="3"/>
  <rect x="30" y="30" width="380" height="260" fill="#c9a96e18" stroke="#1a2338" stroke-width="2"/>
  <text x="220" y="165" text-anchor="middle" font-family="Arial,sans-serif" font-size="22" fill="#1a2338">LIVING / DINING</text>
  <rect x="410" y="30" width="280" height="160" fill="#1a233810" stroke="#1a2338" stroke-width="2"/>
  <text x="550" y="120" text-anchor="middle" font-family="Arial,sans-serif" font-size="20" fill="#1a2338">KITCHEN</text>
  <rect x="690" y="30" width="280" height="120" fill="#e8f0f8" stroke="#1a2338" stroke-width="2"/>
  <text x="830" y="100" text-anchor="middle" font-family="Arial,sans-serif" font-size="18" fill="#1a2338">TERRACE</text>
  <rect x="30" y="290" width="200" height="320" fill="#1a233810" stroke="#1a2338" stroke-width="2"/>
  <text x="130" y="455" text-anchor="middle" font-family="Arial,sans-serif" font-size="20" fill="#1a2338">MASTER</text>
  <rect x="230" y="290" width="180" height="320" fill="#1a233810" stroke="#1a2338" stroke-width="2"/>
  <text x="320" y="455" text-anchor="middle" font-family="Arial,sans-serif" font-size="20" fill="#1a2338">BED 2</text>
  <rect x="410" y="290" width="180" height="320" fill="#1a233810" stroke="#1a2338" stroke-width="2"/>
  <text x="500" y="455" text-anchor="middle" font-family="Arial,sans-serif" font-size="20" fill="#1a2338">BED 3</text>
  <rect x="590" y="290" width="180" height="320" fill="#1a233810" stroke="#1a2338" stroke-width="2"/>
  <text x="680" y="455" text-anchor="middle" font-family="Arial,sans-serif" font-size="20" fill="#1a2338">BED 4</text>
  <rect x="770" y="150" width="100" height="140" fill="#eeeae3" stroke="#1a2338" stroke-width="2"/>
  <text x="820" y="230" text-anchor="middle" font-family="Arial,sans-serif" font-size="14" fill="#1a2338">BATH</text>
  <rect x="870" y="150" width="100" height="140" fill="#eeeae3" stroke="#1a2338" stroke-width="2"/>
  <text x="920" y="230" text-anchor="middle" font-family="Arial,sans-serif" font-size="14" fill="#1a2338">WC</text>
  <rect x="770" y="290" width="200" height="320" fill="#c9a96e18" stroke="#1a2338" stroke-width="2"/>
  <text x="870" y="455" text-anchor="middle" font-family="Arial,sans-serif" font-size="20" fill="#1a2338">HALL</text>
  <text x="500" y="625" text-anchor="middle" font-family="Arial,sans-serif" font-size="14" fill="#8a8578">4 BEDROOM � ~155 m�</text>
</svg>
